<svg width="16" height="14" viewBox="0 0 16 14" fill="currentColor" xmlns="http://www.w3.org/2000/svg">
    <path d="M14 0H11.3094L11.2781 0.03125L7.30937 4H10.1875L10.2188 3.96875L14.1812 0.00937498C14.1219 0.00312498 14.0625 0 14 0ZM16 4V2C16 1.52812 15.8344 1.09062 15.5625 0.75L12.3125 4H16ZM9.19063 0H6.30937L6.27812 0.03125L2.30938 4H5.1875L5.21875 3.96875L9.1875 0H9.19063ZM2 0C0.896875 0 0 0.896875 0 2V4H0.190625L0.221875 3.96875L4.19063 0H2ZM16 5H0V12C0 13.1031 0.896875 14 2 14H14C15.1031 14 16 13.1031 16 12V5Z" fill="currentColor"/>
</svg>
