<svg width="16" height="14" viewBox="0 0 16 14" fill="none" xmlns="http://www.w3.org/2000/svg">
    <path d="M3.86249 11.2281C4.26562 10.9344 4.78749 10.8594 5.25624 11.0281C6.08437 11.3281 7.01249 11.5 7.99999 11.5C11.8969 11.5 14.5 8.98438 14.5 6.5C14.5 4.01562 11.8969 1.5 7.99999 1.5C4.10312 1.5 1.49999 4.01562 1.49999 6.5C1.49999 7.5 1.88749 8.4625 2.61562 9.2875C2.88437 9.59063 3.01562 9.99063 2.98437 10.3969C2.94062 10.9625 2.80624 11.4813 2.63124 11.9406C3.16249 11.6938 3.60312 11.4187 3.86249 11.2312V11.2281ZM0.662493 12.4969C0.718743 12.4125 0.771868 12.3281 0.821868 12.2437C1.13437 11.725 1.43124 11.0437 1.49062 10.2781C0.553118 9.2125 -7.11624e-06 7.90937 -7.11624e-06 6.5C-7.11624e-06 2.90937 3.58124 0 7.99999 0C12.4187 0 16 2.90937 16 6.5C16 10.0906 12.4187 13 7.99999 13C6.84062 13 5.74062 12.8 4.74687 12.4406C4.37499 12.7125 3.76874 13.0844 3.04999 13.3969C2.57812 13.6031 2.04062 13.7906 1.48437 13.9C1.45937 13.9062 1.43437 13.9094 1.40937 13.9156C1.27187 13.9406 1.13749 13.9625 0.996868 13.975C0.990618 13.975 0.981243 13.9781 0.974993 13.9781C0.815618 13.9937 0.656243 14.0031 0.496868 14.0031C0.293743 14.0031 0.112493 13.8813 0.0343679 13.6938C-0.0437571 13.5063 -7.12276e-06 13.2937 0.140618 13.15C0.268743 13.0187 0.384368 12.8781 0.493743 12.7281C0.546868 12.6562 0.596868 12.5844 0.643743 12.5125C0.646868 12.5062 0.649993 12.5031 0.653118 12.4969H0.662493Z" fill="#71EB71"/>
</svg>
