<svg width="16" height="14" viewBox="0 0 16 14" fill="currentColor" xmlns="http://www.w3.org/2000/svg">
    <path d="M8 1.5C4.68438 1.5 1.95 3.98125 1.55 7.1875C1.84375 7.06875 2.1625 7 2.5 7C3.32812 7 4 7.67188 4 8.5V12.5C4 13.3281 3.32812 14 2.5 14C1.11875 14 0 12.8813 0 11.5V11V9.5V8C0 3.58125 3.58125 0 8 0C12.4187 0 16 3.58125 16 8V9.5V11V11.5C16 12.8813 14.8813 14 13.5 14C12.6719 14 12 13.3281 12 12.5V8.5C12 7.67188 12.6719 7 13.5 7C13.8375 7 14.1562 7.06562 14.45 7.1875C14.05 3.98125 11.3156 1.5 8 1.5Z" fill="currentColor"/>
</svg>
