<svg width="16" height="16" viewBox="0 0 16 16" fill="currentColor" xmlns="http://www.w3.org/2000/svg">
    <path
            d="M10.8571 4C10.8571 3.33696 10.5561 2.70107 10.0203 2.23223C9.48449 1.76339 8.75776 1.5 8 1.5C7.24224 1.5 6.51551 1.76339 5.9797 2.23223C5.44388 2.70107 5.14286 3.33696 5.14286 4C5.14286 4.66304 5.44388 5.29893 5.9797 5.76777C6.51551 6.23661 7.24224 6.5 8 6.5C8.75776 6.5 9.48449 6.23661 10.0203 5.76777C10.5561 5.29893 10.8571 4.66304 10.8571 4ZM3.42857 4C3.42857 2.93913 3.9102 1.92172 4.76751 1.17157C5.62482 0.421427 6.78758 0 8 0C9.21242 0 10.3752 0.421427 11.2325 1.17157C12.0898 1.92172 12.5714 2.93913 12.5714 4C12.5714 5.06087 12.0898 6.07828 11.2325 6.82843C10.3752 7.57857 9.21242 8 8 8C6.78758 8 5.62482 7.57857 4.76751 6.82843C3.9102 6.07828 3.42857 5.06087 3.42857 4ZM1.76071 14.5H14.2393C13.9214 12.5219 11.9786 11 9.63214 11H6.36786C4.02143 11 2.07857 12.5219 1.76071 14.5ZM0 15.0719C0 11.9937 2.85 9.5 6.36786 9.5H9.63214C13.15 9.5 16 11.9937 16 15.0719C16 15.5844 15.525 16 14.9393 16H1.06071C0.475 16 0 15.5844 0 15.0719Z" fill="currentColor"/>
</svg>
