<svg width="16" height="14" viewBox="0 0 16 14" fill="currentColor" xmlns="http://www.w3.org/2000/svg">
    <path d="M3.86557 11.2281C4.2686 10.9344 4.79034 10.8594 5.25897 11.0281C6.08689 11.3281 7.01478 11.5 8.00203 11.5C11.8979 11.5 14.5004 8.98438 14.5004 6.5C14.5004 4.01562 11.8979 1.5 8.00203 1.5C4.10614 1.5 1.50367 4.01562 1.50367 6.5C1.50367 7.5 1.89107 8.4625 2.61901 9.2875C2.8877 9.59063 3.01891 9.99063 2.98767 10.3969C2.94393 10.9625 2.80959 11.4813 2.63463 11.9406C3.16575 11.6938 3.60626 11.4187 3.86557 11.2312V11.2281ZM0.666383 12.4969C0.722619 12.4125 0.77573 12.3281 0.825718 12.2437C1.13814 11.725 1.43494 11.0437 1.4943 10.2781C0.557036 9.2125 0.0040507 7.90937 0.0040507 6.5C0.0040507 2.90937 3.58439 0 8.00203 0C12.4197 0 16 2.90937 16 6.5C16 10.0906 12.4197 13 8.00203 13C6.84294 13 5.74322 12.8 4.74972 12.4406C4.37794 12.7125 3.77185 13.0844 3.05328 13.3969C2.58152 13.6031 2.04416 13.7906 1.48805 13.9C1.46306 13.9062 1.43806 13.9094 1.41307 13.9156C1.2756 13.9406 1.14126 13.9625 1.00067 13.975C0.994425 13.975 0.985052 13.9781 0.978804 13.9781C0.819469 13.9937 0.660135 14.0031 0.5008 14.0031C0.297726 14.0031 0.116522 13.8813 0.038417 13.6938C-0.0396882 13.5063 0.00405069 13.2937 0.14464 13.15C0.272733 13.0187 0.388328 12.8781 0.497676 12.7281C0.550787 12.6562 0.600775 12.5844 0.647638 12.5125C0.650762 12.5062 0.653886 12.5031 0.65701 12.4969H0.666383Z" fill="currentColor"/>
</svg>
