<svg width="128" height="128" viewBox="0 0 128 128" fill="none" xmlns="http://www.w3.org/2000/svg">
    <rect width="128" height="128" rx="20" fill="currentColor"/>
    <path opacity="0.35" fill-rule="evenodd" clip-rule="evenodd"
          d="M33.9022 0L52 22.5L65 89L77.3564 128H20C8.95431 128 0 119.046 0 108V20C0 8.95431 8.95431 0 20 0H33.9022Z" fill="black"/>
    <path d="M74.647 21.5334L94.8199 96.8199L19.5334 76.6469L74.647 21.5334Z" fill="white"/>
    <path d="M51.3533 21.5334L106.467 76.6469L31.1803 96.8198L51.3533 21.5334Z" fill="white"/>
    <ellipse cx="77" cy="55" rx="15" ry="5" fill="#739772"/>
    <path opacity="0.46" d="M64.9355 51.8L51.5161 21L44.8064 53.8533L19 76.9533L35.5161 81.06L30.871 98L64.9355 88.76L67 57.96L64.9355 51.8Z" fill="#D9D9D9"/>
    <ellipse cx="77.5" cy="55" rx="13.5" ry="4" fill="#739772"/>
    <g style="mix-blend-mode:screen">
        <path fill-rule="evenodd" clip-rule="evenodd" d="M90.2592 52.66C88.9764 52.8684 87.0957 53 85 53C81.134 53 78 52.5523 78 52C78 51.4477 81.134 51 85 51C85.3553 51 85.7045 51.0038 86.0455 51.0111C87.7855 51.4502 89.2293 52.0129 90.2592 52.66Z" fill="#739772"/>
    </g>
</svg>
